<svg width="110" height="40" viewBox="0 0 110 40" fill="none" xmlns="http://www.w3.org/2000/svg">
<path d="M14.3026 19.5549C14.5078 20.4593 14.7861 21.1723 15.1339 21.6976C15.4817 22.2228 15.9374 22.6089 16.4904 22.8628C17.047 23.1132 17.76 23.2419 18.633 23.2419C19.8365 23.2419 20.7583 22.9289 21.4017 22.3028C22.0452 21.6767 22.3652 20.7619 22.3652 19.5584C22.3652 18.7863 22.233 18.1393 21.9652 17.6141C21.6974 17.0889 21.2626 16.5949 20.6539 16.1323C20.0487 15.6697 19.1235 15.1306 17.8783 14.5149C16.6748 13.9202 15.7252 13.3358 15.0261 12.7654C14.327 12.1949 13.8052 11.5758 13.4609 10.908C13.1165 10.2402 12.9426 9.50973 12.9426 8.71669C12.9426 7.56538 13.2139 6.56712 13.753 5.71843C14.2922 4.86973 15.0852 4.21582 16.1287 3.75321C17.1722 3.2906 18.3687 3.06104 19.7148 3.06104C20.4974 3.06104 21.2591 3.10277 22.0035 3.18277C22.7478 3.26625 23.68 3.4506 24.8035 3.7393V7.89582H23.2765C23.04 6.99147 22.7409 6.28538 22.3826 5.78451C22.0243 5.28017 21.6 4.92886 21.1165 4.72712C20.633 4.52538 20.007 4.42799 19.2348 4.42799C18.567 4.42799 17.9687 4.54973 17.44 4.79669C16.9113 5.04364 16.4904 5.41582 16.1843 5.91321C15.8748 6.4106 15.7217 7.00538 15.7217 7.69408C15.7217 8.42451 15.8539 9.04017 16.1148 9.54451C16.3756 10.0489 16.7861 10.5149 17.3391 10.9463C17.8956 11.3776 18.7165 11.861 19.8052 12.3967C21.12 13.0541 22.1426 13.6663 22.8661 14.2332C23.5896 14.8002 24.1565 15.4436 24.5635 16.1671C24.9704 16.8906 25.1722 17.7358 25.1722 18.7028C25.1722 19.781 25.0017 20.6958 24.6643 21.4402C24.3235 22.1845 23.8539 22.7932 23.2522 23.2593C22.6504 23.7254 21.9304 24.0663 21.0922 24.2784C20.2539 24.4906 19.3356 24.5949 18.3409 24.5949C16.727 24.5949 14.8661 24.3236 12.7583 23.7776V19.5549H14.3026Z" fill="#101D3C"/>
<path d="M49.2974 3.30127V7.95866H47.7878C47.6348 7.45431 47.4748 7.01257 47.3113 6.63344C47.1478 6.25431 46.9774 5.93431 46.8035 5.67692C46.6296 5.41953 46.4348 5.21431 46.2261 5.06127C46.0174 4.90823 45.7669 4.8004 45.4783 4.74475C45.1896 4.6891 44.8452 4.66127 44.4452 4.66127H39.5722V12.7413H42.873C43.3252 12.7413 43.68 12.6787 43.9374 12.55C44.1948 12.4213 44.4069 12.2021 44.5774 11.8961C44.7478 11.5865 44.9078 11.103 45.0643 10.4456H46.5148V16.3656H45.0643C44.9217 15.75 44.7617 15.2839 44.5878 14.9708C44.4139 14.6578 44.2052 14.4352 43.9617 14.2995C43.7217 14.1674 43.3565 14.0978 42.873 14.0978H39.5722V22.9917H44.3687C44.873 22.9917 45.28 22.9465 45.593 22.8595C45.9061 22.7726 46.1774 22.623 46.4035 22.4108C46.6296 22.1987 46.8313 21.9239 47.0052 21.5865C47.1791 21.2456 47.3252 20.8943 47.4435 20.5291C47.5617 20.1639 47.7252 19.6317 47.9304 18.9326H49.4574L49.1652 24.3447H34.8869V23.59C35.5235 23.4265 35.9513 23.2421 36.1669 23.0439C36.3826 22.8456 36.5252 22.5569 36.5913 22.1882C36.6574 21.8195 36.6922 21.2526 36.6922 20.4908V7.15518C36.6922 6.44562 36.6678 5.93084 36.6156 5.60388C36.5635 5.2804 36.48 5.02649 36.3617 4.8491C36.2435 4.66823 36.0869 4.52562 35.8922 4.41779C35.6974 4.30997 35.3635 4.18823 34.8904 4.05605V3.30127H49.2974Z" fill="#101D3C"/>
<path d="M73.7809 3.30127V7.95866H72.2713C72.1183 7.45431 71.9583 7.01257 71.7948 6.63344C71.6313 6.25431 71.4609 5.93431 71.287 5.67692C71.113 5.41953 70.9183 5.21431 70.7096 5.06127C70.5009 4.90823 70.2504 4.8004 69.9617 4.74475C69.673 4.6891 69.3287 4.66127 68.9287 4.66127H64.0557V12.7413H67.3565C67.8087 12.7413 68.1635 12.6787 68.4209 12.55C68.6783 12.4213 68.8904 12.2021 69.0609 11.8961C69.2313 11.5865 69.3913 11.103 69.5478 10.4456H70.9983V16.3656H69.5478C69.4052 15.75 69.2452 15.2839 69.0713 14.9708C68.8974 14.6578 68.6887 14.4352 68.4452 14.2995C68.2052 14.1674 67.84 14.0978 67.3565 14.0978H64.0557V22.9917H68.8522C69.3565 22.9917 69.7635 22.9465 70.0765 22.8595C70.3896 22.7726 70.6609 22.623 70.887 22.4108C71.113 22.1987 71.3148 21.9239 71.4887 21.5865C71.6626 21.2456 71.8087 20.8943 71.927 20.5291C72.0452 20.1639 72.2087 19.6317 72.4139 18.9326H73.9409L73.6487 24.3447H59.3704V23.59C60.007 23.4265 60.4348 23.2421 60.6504 23.0439C60.8661 22.8421 61.0087 22.5569 61.0748 22.1882C61.1409 21.8195 61.1757 21.2526 61.1757 20.4908V7.15518C61.1757 6.44562 61.1513 5.93084 61.0991 5.60388C61.047 5.2804 60.9635 5.02649 60.8452 4.8491C60.727 4.66823 60.5704 4.52562 60.3757 4.41779C60.1809 4.30997 59.847 4.18823 59.3739 4.05605V3.30127H73.7809Z" fill="#101D3C"/>
<path d="M85.2452 19.5549C85.4504 20.4593 85.7287 21.1723 86.0765 21.6976C86.4243 22.2228 86.88 22.6089 87.433 22.8628C87.9896 23.1132 88.7026 23.2419 89.5756 23.2419C90.7791 23.2419 91.7009 22.9289 92.3443 22.3028C92.9878 21.6767 93.3078 20.7619 93.3078 19.5584C93.3078 18.7863 93.1756 18.1393 92.9078 17.6141C92.64 17.0889 92.2052 16.5949 91.5965 16.1323C90.9913 15.6697 90.0661 15.1306 88.8209 14.5149C87.6174 13.9202 86.6678 13.3358 85.9687 12.7654C85.2696 12.1949 84.7478 11.5758 84.4035 10.908C84.0591 10.2402 83.8852 9.50973 83.8852 8.71669C83.8852 7.56538 84.1565 6.56712 84.6956 5.71843C85.2348 4.86973 86.0278 4.21582 87.0713 3.75321C88.1148 3.2906 89.3113 3.06104 90.6574 3.06104C91.44 3.06104 92.2017 3.10277 92.9461 3.18277C93.6904 3.26625 94.6226 3.4506 95.7461 3.7393V7.89582H94.2191C93.9826 6.99147 93.6835 6.28538 93.3252 5.78451C92.967 5.28017 92.5426 4.92886 92.0591 4.72712C91.5757 4.52538 90.9496 4.42799 90.1774 4.42799C89.5096 4.42799 88.9113 4.54973 88.3826 4.79669C87.8539 5.04364 87.433 5.41582 87.127 5.91321C86.8209 6.4106 86.6643 7.00538 86.6643 7.69408C86.6643 8.42451 86.7965 9.04017 87.0574 9.54451C87.3183 10.0489 87.7287 10.5149 88.2817 10.9463C88.8383 11.3776 89.6591 11.861 90.7478 12.3967C92.0626 13.0541 93.0852 13.6663 93.8087 14.2332C94.5322 14.8002 95.0991 15.4436 95.5061 16.1671C95.913 16.8906 96.1148 17.7358 96.1148 18.7028C96.1148 19.781 95.9443 20.6958 95.607 21.4402C95.2661 22.1845 94.7965 22.7932 94.1948 23.2593C93.593 23.7254 92.873 24.0663 92.0348 24.2784C91.1965 24.4906 90.2783 24.5949 89.2835 24.5949C87.6696 24.5949 85.8087 24.3236 83.7009 23.7776V19.5549H85.2452Z" fill="#101D3C"/>
<path d="M2.6226 34.9253H3.21043C3.21043 35.1688 3.27304 35.3392 3.39826 35.4366C3.58608 35.5827 3.84347 35.6558 4.17391 35.6558C4.46956 35.6558 4.69913 35.5758 4.85565 35.4123C5.01217 35.2488 5.09217 35.0471 5.09217 34.8036C5.09217 34.6088 5.03652 34.4523 4.92869 34.341C4.80347 34.2123 4.47304 34.0314 3.94087 33.8053C3.5026 33.6279 3.19652 33.4227 3.02608 33.1966C2.83826 32.9706 2.74434 32.7097 2.74434 32.414C2.74434 32.0384 2.87652 31.7288 3.14434 31.4853C3.41217 31.2419 3.78782 31.1201 4.2713 31.1201C4.70956 31.1201 5.04 31.2106 5.25913 31.3879C5.46087 31.5514 5.56521 31.7775 5.56521 32.0732H4.95304C4.95304 31.9097 4.89739 31.7949 4.78956 31.7323C4.66434 31.6523 4.46956 31.6106 4.20173 31.6106C3.96521 31.6106 3.76347 31.6766 3.59304 31.8053C3.44347 31.9479 3.37391 32.1253 3.37391 32.3375C3.37391 32.5497 3.45043 32.7375 3.61043 32.901C3.73565 32.9984 4.06608 33.1688 4.59826 33.4123C5.03652 33.6245 5.32521 33.8262 5.46782 34.021C5.62434 34.2332 5.70434 34.4836 5.70434 34.7792C5.70434 35.1688 5.57913 35.4958 5.32869 35.7566C5.07826 36.0175 4.69565 36.1462 4.17739 36.1462C3.65913 36.1462 3.26956 36.0314 3.00173 35.8053C2.74782 35.5932 2.6226 35.301 2.6226 34.9253Z" fill="#111D3C"/>
<path d="M8.51826 35.1199H9.05739C9.05739 35.3808 8.94957 35.6069 8.73043 35.8051C8.49391 35.9999 8.17391 36.0973 7.76696 36.0973C7.29739 36.0973 6.92174 35.9338 6.64 35.6104C6.35826 35.2834 6.21565 34.8521 6.21565 34.3164C6.21565 33.746 6.36522 33.3078 6.66087 32.9982C6.94261 32.6712 7.30435 32.5112 7.74261 32.5112C8.14957 32.5112 8.48 32.6434 8.73043 32.9008C8.96696 33.1617 9.08174 33.586 9.08174 34.1704V34.3651H6.75826C6.75826 34.7721 6.85913 35.0817 7.06435 35.2938C7.25217 35.5234 7.50261 35.6347 7.81565 35.6347C8.05217 35.6347 8.22261 35.5791 8.33391 35.4643C8.45565 35.3669 8.51826 35.2521 8.51826 35.1199ZM6.77913 33.9478H8.53913V33.8747C8.53913 33.7112 8.50783 33.5651 8.44522 33.4364C8.36522 33.273 8.26435 33.1617 8.13913 33.0956C8.01391 33.0156 7.86435 32.9738 7.69391 32.9738C7.47478 32.9738 7.28696 33.0538 7.13043 33.2173C6.97391 33.3808 6.85913 33.6243 6.77913 33.9478Z" fill="#111D3C"/>
<path d="M10.3722 34.3166V36H9.80869V32.5809H10.3722V33.1896C10.6226 32.734 10.9739 32.5044 11.4296 32.5044C11.7739 32.5044 12.0383 32.6018 12.2296 32.7966C12.4174 33.0087 12.5113 33.3496 12.5113 33.8227V35.9966H11.9478V34.0661C11.9478 33.6105 11.8922 33.3253 11.7843 33.2105C11.6591 33.0818 11.4956 33.0157 11.2904 33.0157C11.0226 33.0157 10.8139 33.12 10.6574 33.3322C10.4661 33.5514 10.3722 33.8748 10.3722 34.3166Z" fill="#111D3C"/>
<path d="M13.3078 31.2627H13.8713V31.8262H13.3078V31.2627ZM13.8713 32.581V36.0001H13.3078V32.581H13.8713Z" fill="#111D3C"/>
<path d="M16.1287 36.0973C15.673 36.0973 15.3078 35.9338 15.0261 35.6104C14.727 35.3008 14.5809 34.8625 14.5809 34.2921C14.5809 33.7217 14.7235 33.2834 15.0052 32.9738C15.287 32.6643 15.6626 32.5112 16.1322 32.5112C16.5844 32.5112 16.953 32.6678 17.2348 32.9738C17.5165 33.2834 17.6557 33.7217 17.6557 34.2921C17.6557 34.8451 17.5165 35.2869 17.2348 35.6104C16.9496 35.9338 16.5809 36.0973 16.1287 36.0973ZM16.1287 35.6347C16.393 35.6347 16.6226 35.513 16.8104 35.2695C16.9983 35.0434 17.0922 34.7164 17.0922 34.2921C17.0922 33.8538 16.9983 33.5269 16.8104 33.3147C16.6226 33.0886 16.3965 32.9738 16.1287 32.9738C15.847 32.9738 15.6104 33.0886 15.4226 33.3147C15.2348 33.5269 15.1409 33.8504 15.1409 34.2921C15.1409 34.7164 15.2348 35.0399 15.4226 35.2695C15.6104 35.513 15.847 35.6347 16.1287 35.6347Z" fill="#111D3C"/>
<path d="M18.9217 34.3165V36H18.3583V32.5809H18.9217V33.1896C19.0296 32.9948 19.1791 32.8243 19.367 32.6782C19.5235 32.5635 19.7043 32.5078 19.9061 32.5078C19.9513 32.5078 20.0557 32.5252 20.2122 32.5565V33.1409C20.1009 33.0748 19.9617 33.0435 19.7878 33.0435C19.5513 33.0435 19.3496 33.1409 19.1791 33.3356C19.0087 33.5687 18.9217 33.8922 18.9217 34.3165Z" fill="#111D3C"/>
<path d="M22.9635 35.4888H25.1026V36.0001H22.3548V31.2627H24.9391V31.774H22.967V33.287H24.6817V33.7497H22.967V35.4888H22.9635Z" fill="#111D3C"/>
<path d="M26.3687 34.3166V36H25.8052V32.5809H26.3687V33.1896C26.6191 32.734 26.9704 32.5044 27.4261 32.5044C27.7704 32.5044 28.0348 32.6018 28.2261 32.7966C28.4139 33.0087 28.5078 33.3496 28.5078 33.8227V35.9966H27.9444V34.0661C27.9444 33.6105 27.8887 33.3253 27.7809 33.2105C27.6557 33.0818 27.4922 33.0157 27.287 33.0157C27.0191 33.0157 26.8104 33.12 26.6539 33.3322C26.4626 33.5514 26.3687 33.8748 26.3687 34.3166Z" fill="#111D3C"/>
<path d="M31.5583 35.6838V35.2943C31.3391 35.7673 30.9878 36.0038 30.5009 36.0038C30.1252 36.0038 29.8122 35.8508 29.5617 35.5412C29.2939 35.2143 29.1617 34.7934 29.1617 34.2717C29.1617 33.7012 29.2869 33.263 29.5374 32.9534C29.8052 32.6612 30.1322 32.5151 30.5252 32.5151C30.7269 32.5151 30.9252 32.5569 31.113 32.6369C31.2522 32.7169 31.4017 32.8908 31.5583 33.1482V32.5847H32.1217V35.3917C32.1217 36.1082 32.0417 36.5708 31.8852 36.783C31.6035 37.2073 31.1722 37.4195 30.5948 37.4195C30.1565 37.4195 29.8191 37.3221 29.5861 37.1273C29.3356 36.9638 29.2104 36.7377 29.2104 36.4421H29.7739C29.7739 36.6056 29.8296 36.7343 29.9374 36.8317C30.0939 36.9464 30.313 37.0021 30.5948 37.0021C30.9704 37.0021 31.2348 36.8699 31.3948 36.6125C31.5026 36.449 31.5583 36.1395 31.5583 35.6838ZM31.5583 34.1951C31.5583 33.8195 31.4713 33.5204 31.3009 33.2908C31.113 33.0786 30.8939 32.9743 30.6435 32.9743C30.3756 32.9743 30.1669 33.0786 30.0104 33.2908C29.8226 33.503 29.7287 33.8264 29.7287 34.2682C29.7287 34.6925 29.8156 35.016 29.9861 35.2456C30.1426 35.4577 30.3617 35.5621 30.6435 35.5621C30.8939 35.5621 31.113 35.4404 31.3009 35.1969C31.4713 34.9673 31.5583 34.6334 31.5583 34.1951Z" fill="#111D3C"/>
<path d="M32.9669 31.2627H33.5304V31.8262H32.9669V31.2627ZM33.5304 32.581V36.0001H32.9669V32.581H33.5304Z" fill="#111D3C"/>
<path d="M34.9391 34.3166V36H34.3757V32.5809H34.9391V33.1896C35.1896 32.734 35.5409 32.5044 35.9965 32.5044C36.3409 32.5044 36.6052 32.6018 36.7965 32.7966C36.9844 33.0087 37.0783 33.3496 37.0783 33.8227V35.9966H36.5148V34.0661C36.5148 33.6105 36.4591 33.3253 36.3513 33.2105C36.2261 33.0818 36.0626 33.0157 35.8574 33.0157C35.5896 33.0157 35.3809 33.12 35.2243 33.3322C35.033 33.5514 34.9391 33.8748 34.9391 34.3166Z" fill="#111D3C"/>
<path d="M40.0348 35.1199H40.5739C40.5739 35.3808 40.4661 35.6069 40.247 35.8051C40.0104 35.9999 39.6904 36.0973 39.2835 36.0973C38.8139 36.0973 38.4383 35.9338 38.1565 35.6104C37.8748 35.2834 37.7322 34.8521 37.7322 34.3164C37.7322 33.746 37.8817 33.3078 38.1774 32.9982C38.4591 32.6712 38.8209 32.5112 39.2591 32.5112C39.6661 32.5112 39.9965 32.6434 40.247 32.9008C40.4835 33.1617 40.5983 33.586 40.5983 34.1704V34.3651H38.2748C38.2748 34.7721 38.3757 35.0817 38.5809 35.2938C38.7687 35.5234 39.0191 35.6347 39.3322 35.6347C39.5687 35.6347 39.7391 35.5791 39.8504 35.4643C39.9722 35.3669 40.0348 35.2521 40.0348 35.1199ZM38.2991 33.9478H40.0591V33.8747C40.0591 33.7112 40.0278 33.5651 39.9652 33.4364C39.8852 33.273 39.7843 33.1617 39.6591 33.0956C39.5339 33.0156 39.3843 32.9738 39.2139 32.9738C38.9948 32.9738 38.807 33.0538 38.6504 33.2173C38.4939 33.3808 38.3757 33.6243 38.2991 33.9478Z" fill="#111D3C"/>
<path d="M43.4887 35.1199H44.0278C44.0278 35.3808 43.92 35.6069 43.7009 35.8051C43.4643 35.9999 43.1443 36.0973 42.7374 36.0973C42.2678 36.0973 41.8922 35.9338 41.6104 35.6104C41.3287 35.2834 41.1861 34.8521 41.1861 34.3164C41.1861 33.746 41.3356 33.3078 41.6313 32.9982C41.913 32.6712 42.2748 32.5112 42.713 32.5112C43.12 32.5112 43.4504 32.6434 43.7009 32.9008C43.9374 33.1617 44.0522 33.586 44.0522 34.1704V34.3651H41.7287C41.7287 34.7721 41.8296 35.0817 42.0348 35.2938C42.2226 35.5234 42.473 35.6347 42.7861 35.6347C43.0226 35.6347 43.193 35.5791 43.3043 35.4643C43.4261 35.3669 43.4887 35.2521 43.4887 35.1199ZM41.7496 33.9478H43.5096V33.8747C43.5096 33.7112 43.4783 33.5651 43.4156 33.4364C43.3356 33.273 43.2348 33.1617 43.1096 33.0956C42.9843 33.0156 42.8348 32.9738 42.6643 32.9738C42.4452 32.9738 42.2574 33.0538 42.1009 33.2173C41.9443 33.3808 41.8296 33.6243 41.7496 33.9478Z" fill="#111D3C"/>
<path d="M45.3426 34.3165V36H44.7791V32.5809H45.3426V33.1896C45.4504 32.9948 45.6 32.8243 45.7878 32.6782C45.9443 32.5635 46.1252 32.5078 46.327 32.5078C46.3722 32.5078 46.4765 32.5252 46.633 32.5565V33.1409C46.5217 33.0748 46.3826 33.0435 46.2087 33.0435C45.9722 33.0435 45.7704 33.1409 45.6 33.3356C45.4296 33.5687 45.3426 33.8922 45.3426 34.3165Z" fill="#111D3C"/>
<path d="M49.3843 35.4888H51.5235V36.0001H48.7757V31.2627H51.36V31.774H49.3878V33.287H51.1026V33.7497H49.3878V35.4888H49.3843Z" fill="#111D3C"/>
<path d="M52.7896 34.3166V36H52.2261V32.5809H52.7896V33.1896C53.04 32.734 53.3913 32.5044 53.847 32.5044C54.1913 32.5044 54.4557 32.6018 54.647 32.7966C54.8348 33.0087 54.9287 33.3496 54.9287 33.8227V35.9966H54.3652V34.0661C54.3652 33.6105 54.3096 33.3253 54.2017 33.2105C54.0765 33.0818 53.913 33.0157 53.7078 33.0157C53.44 33.0157 53.2313 33.12 53.0748 33.3322C52.8835 33.5514 52.7896 33.8748 52.7896 34.3166Z" fill="#111D3C"/>
<path d="M57.7426 35.513V36C57.5374 36.066 57.3357 36.0973 57.1339 36.0973C56.7722 36.0973 56.5148 35.993 56.3583 35.7808C56.1704 35.586 56.0765 35.2695 56.0765 34.8278V33.0713H55.513V32.5843H56.0765V31.7773H56.6157V32.5843H57.5791V33.0713H56.6157V34.6573C56.6157 35.0643 56.6713 35.3252 56.7791 35.44C56.873 35.5721 57.0296 35.6347 57.2487 35.6347C57.3148 35.6347 57.4783 35.593 57.7426 35.513Z" fill="#111D3C"/>
<path d="M58.9426 34.3165V36H58.3791V32.5809H58.9426V33.1896C59.0504 32.9948 59.2 32.8243 59.3878 32.6782C59.5443 32.5635 59.7252 32.5078 59.9269 32.5078C59.9722 32.5078 60.0765 32.5252 60.233 32.5565V33.1409C60.1217 33.0748 59.9826 33.0435 59.8087 33.0435C59.5722 33.0435 59.3704 33.1409 59.2 33.3356C59.0296 33.5687 58.9426 33.8922 58.9426 34.3165Z" fill="#111D3C"/>
<path d="M62.8174 34.2679V32.5845H63.3565V36.0036H62.8174V35.4193C62.5217 35.8749 62.167 36.1045 61.76 36.1045C61.4783 36.1045 61.2278 36.014 61.0087 35.8366C60.7757 35.6593 60.6574 35.301 60.6574 34.7619V32.588H61.2209V34.5184C61.2209 34.974 61.2904 35.2662 61.433 35.3984C61.5583 35.5306 61.7078 35.5932 61.8783 35.5932C62.1287 35.5932 62.3478 35.4784 62.5357 35.2523C62.7235 35.0158 62.8174 34.6888 62.8174 34.2679Z" fill="#111D3C"/>
<path d="M64.0139 35.1686H64.553C64.553 35.3147 64.6087 35.4225 64.7165 35.4851C64.8417 35.5825 65.0122 35.6312 65.2348 35.6312C65.4365 35.6312 65.6244 35.5651 65.7983 35.4364C65.9409 35.3078 66.0104 35.1825 66.0104 35.0712C66.0104 34.9564 65.9722 34.8591 65.8922 34.7791C65.7809 34.6991 65.5235 34.5912 65.1165 34.4625C64.7096 34.3338 64.4348 34.1843 64.2957 34.0243C64.1565 33.8782 64.0835 33.6973 64.0835 33.4886C64.0835 33.2278 64.2017 33.0017 64.4348 32.8034C64.6539 32.6086 64.9531 32.5112 65.3287 32.5112C65.7531 32.5112 66.0417 32.5912 66.1983 32.7547C66.3861 32.9182 66.48 33.106 66.48 33.3147H65.9409C65.9409 33.2173 65.9026 33.1443 65.8226 33.0956C65.6974 33.0156 65.5409 32.9738 65.353 32.9738C65.1339 32.9738 64.96 33.0225 64.8348 33.1199C64.7096 33.2173 64.647 33.3321 64.647 33.4608C64.647 33.5582 64.6922 33.6486 64.7896 33.7286C64.9287 33.826 65.2417 33.9408 65.7287 34.0695C66.0417 34.1669 66.2609 34.2886 66.3861 34.4347C66.5113 34.6121 66.5739 34.793 66.5739 34.9704C66.5739 35.2799 66.4557 35.5478 66.2226 35.7773C66.0174 35.9895 65.6974 36.0938 65.2591 36.0938C64.8661 36.0938 64.5635 36.0034 64.3444 35.826C64.1252 35.6521 64.0139 35.4295 64.0139 35.1686Z" fill="#111D3C"/>
<path d="M69.2765 35.513V36C69.0713 36.066 68.8696 36.0973 68.6678 36.0973C68.3061 36.0973 68.0487 35.993 67.8922 35.7808C67.7044 35.586 67.6104 35.2695 67.6104 34.8278V33.0713H67.047V32.5843H67.6104V31.7773H68.1496V32.5843H69.1131V33.0713H68.1496V34.6573C68.1496 35.0643 68.2052 35.3252 68.3131 35.44C68.407 35.5721 68.5635 35.6347 68.7826 35.6347C68.8452 35.6347 69.0087 35.593 69.2765 35.513Z" fill="#111D3C"/>
<path d="M70.4731 34.3409V36H69.9096V32.5809H70.4731V33.2174C70.5809 32.9739 70.7304 32.7861 70.9183 32.6574C71.0922 32.56 71.28 32.5113 71.4817 32.5113C71.7496 32.5113 71.9583 32.5704 72.1148 32.6817C72.24 32.7791 72.3583 32.96 72.4661 33.2174C72.7339 32.7443 73.0748 32.5078 73.4991 32.5078C73.8261 32.5078 74.087 32.6296 74.2748 32.873C74.4 33.1026 74.4626 33.433 74.4626 33.8748V36H73.9235V34.0974C73.9235 33.673 73.8922 33.4052 73.8296 33.2904C73.7044 33.113 73.5478 33.0226 73.36 33.0226C73.1235 33.0226 72.9217 33.1374 72.7513 33.3635C72.5635 33.5756 72.4696 33.8991 72.4696 34.3409V36H71.9304V34.0974C71.9304 33.673 71.8922 33.3982 71.8122 33.2661C71.7009 33.1026 71.5548 33.0226 71.367 33.0226C71.1304 33.0226 70.9287 33.1374 70.7548 33.3635C70.567 33.5756 70.4731 33.8991 70.4731 34.3409Z" fill="#111D3C"/>
<path d="M77.4504 35.1199H77.9896C77.9896 35.3808 77.8817 35.6069 77.6626 35.8051C77.4261 35.9999 77.1061 36.0973 76.6991 36.0973C76.2296 36.0973 75.8539 35.9338 75.5722 35.6104C75.2904 35.2834 75.1478 34.8521 75.1478 34.3164C75.1478 33.746 75.2974 33.3078 75.593 32.9982C75.8748 32.6712 76.2365 32.5112 76.6748 32.5112C77.0817 32.5112 77.4122 32.6434 77.6626 32.9008C77.8991 33.1617 78.0139 33.586 78.0139 34.1704V34.3651H75.6904C75.6904 34.7721 75.7913 35.0817 75.9965 35.2938C76.1843 35.5234 76.4348 35.6347 76.7478 35.6347C76.9843 35.6347 77.1548 35.5791 77.2661 35.4643C77.3843 35.3669 77.4504 35.2521 77.4504 35.1199ZM75.7113 33.9478H77.4713V33.8747C77.4713 33.7112 77.44 33.5651 77.3774 33.4364C77.2974 33.273 77.1965 33.1617 77.0713 33.0956C76.9461 33.0156 76.7965 32.9738 76.6261 32.9738C76.407 32.9738 76.2191 33.0538 76.0626 33.2173C75.9061 33.3808 75.7878 33.6243 75.7113 33.9478Z" fill="#111D3C"/>
<path d="M79.3044 34.3166V36H78.7409V32.5809H79.3044V33.1896C79.5548 32.734 79.9061 32.5044 80.3617 32.5044C80.7061 32.5044 80.9704 32.6018 81.1617 32.7966C81.3496 33.0087 81.4435 33.3496 81.4435 33.8227V35.9966H80.88V34.0661C80.88 33.6105 80.8244 33.3253 80.7165 33.2105C80.5913 33.0818 80.4278 33.0157 80.2226 33.0157C79.9548 33.0157 79.7461 33.12 79.5896 33.3322C79.3983 33.5514 79.3044 33.8748 79.3044 34.3166Z" fill="#111D3C"/>
<path d="M84.2609 35.513V36C84.0557 36.066 83.8539 36.0973 83.6522 36.0973C83.2904 36.0973 83.0331 35.993 82.8765 35.7808C82.6887 35.586 82.5948 35.2695 82.5948 34.8278V33.0713H82.0313V32.5843H82.5948V31.7773H83.1339V32.5843H84.0974V33.0713H83.1339V34.6573C83.1339 35.0643 83.1896 35.3252 83.2974 35.44C83.3913 35.5721 83.5478 35.6347 83.767 35.6347C83.8296 35.6347 83.9931 35.593 84.2609 35.513Z" fill="#111D3C"/>
<path d="M86.4661 34.9253H87.0539C87.0539 35.1688 87.1165 35.3392 87.2418 35.4366C87.4296 35.5827 87.687 35.6558 88.0174 35.6558C88.3131 35.6558 88.5426 35.5758 88.6991 35.4123C88.8557 35.2488 88.9357 35.0471 88.9357 34.8036C88.9357 34.6088 88.88 34.4523 88.7722 34.341C88.647 34.2123 88.3165 34.0314 87.7844 33.8053C87.3461 33.6279 87.04 33.4227 86.8696 33.1966C86.6817 32.9706 86.5878 32.7097 86.5878 32.414C86.5878 32.0384 86.72 31.7288 86.9878 31.4853C87.2557 31.2419 87.6313 31.1201 88.1148 31.1201C88.5531 31.1201 88.8835 31.2106 89.1026 31.3879C89.3044 31.5514 89.4087 31.7775 89.4087 32.0732H88.7965C88.7965 31.9097 88.7409 31.7949 88.6331 31.7323C88.5078 31.6523 88.3131 31.6106 88.0452 31.6106C87.8087 31.6106 87.607 31.6766 87.4365 31.8053C87.2939 31.9514 87.2244 32.1323 87.2244 32.341C87.2244 32.5532 87.3009 32.741 87.4609 32.9045C87.5861 33.0019 87.9165 33.1723 88.4487 33.4158C88.887 33.6279 89.1757 33.8297 89.3183 34.0245C89.4748 34.2366 89.5548 34.4871 89.5548 34.7827C89.5548 35.1723 89.4296 35.4992 89.1791 35.7601C88.9287 36.021 88.5461 36.1497 88.0278 36.1497C87.5096 36.1497 87.12 36.0349 86.8522 35.8088C86.5913 35.5932 86.4661 35.301 86.4661 34.9253Z" fill="#111D3C"/>
<path d="M92.3618 35.1199H92.9009C92.9009 35.3808 92.793 35.6069 92.5739 35.8051C92.3374 35.9999 92.0174 36.0973 91.6104 36.0973C91.1409 36.0973 90.7652 35.9338 90.4835 35.6104C90.2018 35.2834 90.0591 34.8521 90.0591 34.3164C90.0591 33.746 90.2087 33.3078 90.5044 32.9982C90.7861 32.6712 91.1478 32.5112 91.5861 32.5112C91.9931 32.5112 92.3235 32.6434 92.5739 32.9008C92.8104 33.1617 92.9252 33.586 92.9252 34.1704V34.3651H90.6018C90.6018 34.7721 90.7026 35.0817 90.9078 35.2938C91.0957 35.5234 91.3461 35.6347 91.6591 35.6347C91.8957 35.6347 92.0661 35.5791 92.1774 35.4643C92.2991 35.3669 92.3618 35.2521 92.3618 35.1199ZM90.6226 33.9478H92.3826V33.8747C92.3826 33.7112 92.3513 33.5651 92.2887 33.4364C92.2087 33.273 92.1078 33.1617 91.9826 33.0956C91.8574 33.0156 91.7078 32.9738 91.5374 32.9738C91.3183 32.9738 91.1304 33.0538 90.9739 33.2173C90.8209 33.3808 90.7026 33.6243 90.6226 33.9478Z" fill="#111D3C"/>
<path d="M94.2191 34.3165V36H93.6556V32.5809H94.2191V33.1896C94.3269 32.9948 94.4765 32.8243 94.6643 32.6782C94.8209 32.5635 95.0017 32.5078 95.2035 32.5078C95.2487 32.5078 95.353 32.5252 95.5095 32.5565V33.1409C95.3982 33.0748 95.2591 33.0435 95.0852 33.0435C94.8487 33.0435 94.6469 33.1409 94.4765 33.3356C94.3026 33.5687 94.2191 33.8922 94.2191 34.3165Z" fill="#111D3C"/>
<path d="M98.327 32.5811H98.8661L97.5026 36.0002H96.9635L95.6244 32.5811H96.2122L97.2696 35.2663L98.327 32.5811Z" fill="#111D3C"/>
<path d="M99.36 31.2627H99.9235V31.8262H99.36V31.2627ZM99.9235 32.581V36.0001H99.36V32.581H99.9235Z" fill="#111D3C"/>
<path d="M102.838 35.1199H103.377C103.377 35.3808 103.266 35.6069 103.05 35.8051C102.814 35.9999 102.511 36.0973 102.136 36.0973C101.649 36.0973 101.283 35.9443 101.033 35.6347C100.765 35.3078 100.633 34.8625 100.633 34.2921C100.633 33.7217 100.765 33.2764 101.033 32.9495C101.301 32.6573 101.666 32.5112 102.136 32.5112C102.56 32.5112 102.88 32.626 103.099 32.8521C103.287 33.0156 103.381 33.2173 103.381 33.4608H102.842C102.842 33.3147 102.786 33.193 102.678 33.0956C102.553 33.0156 102.383 32.9738 102.16 32.9738C101.861 32.9738 101.635 33.0782 101.478 33.2904C101.29 33.5025 101.197 33.8364 101.197 34.2921C101.197 34.7304 101.29 35.0643 101.478 35.2938C101.649 35.5234 101.878 35.6347 102.16 35.6347C102.397 35.6347 102.567 35.586 102.678 35.4886C102.783 35.3912 102.838 35.2695 102.838 35.1199Z" fill="#111D3C"/>
<path d="M106.219 35.1199H106.758C106.758 35.3808 106.65 35.6069 106.431 35.8051C106.195 35.9999 105.875 36.0973 105.468 36.0973C104.998 36.0973 104.623 35.9338 104.341 35.6104C104.059 35.2834 103.917 34.8521 103.917 34.3164C103.917 33.746 104.066 33.3078 104.362 32.9982C104.643 32.6712 105.005 32.5112 105.443 32.5112C105.85 32.5112 106.181 32.6434 106.431 32.9008C106.668 33.1617 106.783 33.586 106.783 34.1704V34.3651H104.459C104.459 34.7721 104.56 35.0817 104.765 35.2938C104.953 35.5234 105.203 35.6347 105.517 35.6347C105.753 35.6347 105.923 35.5791 106.035 35.4643C106.157 35.3669 106.219 35.2521 106.219 35.1199ZM104.48 33.9478H106.24V33.8747C106.24 33.7112 106.209 33.5651 106.146 33.4364C106.066 33.273 105.965 33.1617 105.84 33.0956C105.715 33.0156 105.565 32.9738 105.395 32.9738C105.176 32.9738 104.988 33.0538 104.831 33.2173C104.675 33.3808 104.56 33.6243 104.48 33.9478Z" fill="#111D3C"/>
</svg>
